<svg width="16" height="16" viewBox="0 0 16 16" fill="none" xmlns="http://www.w3.org/2000/svg">
<g clip-path="url(#clip0_373_4594)">
<path d="M8 6.54492V9.64311H12.3054C12.1164 10.6395 11.549 11.4831 10.6981 12.0504L13.2945 14.065C14.8072 12.6686 15.68 10.6177 15.68 8.18136C15.68 7.6141 15.6291 7.0686 15.5345 6.54501L8 6.54492Z" fill="white"/>
<path d="M3.51576 9.52344L2.93018 9.97169L0.857422 11.5862C2.17378 14.1971 4.87176 16.0008 7.99901 16.0008C10.159 16.0008 11.9698 15.288 13.2935 14.0662L10.6972 12.0517C9.98443 12.5317 9.07533 12.8226 7.99901 12.8226C5.91902 12.8226 4.1518 11.419 3.51903 9.52806L3.51576 9.52344Z" fill="white"/>
<path d="M0.858119 4.41406C0.312695 5.49038 0 6.70494 0 7.99947C0 9.29399 0.312695 10.5086 0.858119 11.5849C0.858119 11.5921 3.51998 9.51942 3.51998 9.51942C3.35998 9.03942 3.26541 8.53036 3.26541 7.99939C3.26541 7.46841 3.35998 6.95935 3.51998 6.47935L0.858119 4.41406Z" fill="white"/>
<path d="M7.99918 3.18545C9.17737 3.18545 10.2246 3.59271 11.061 4.37818L13.3519 2.0873C11.9628 0.792777 10.1592 0 7.99918 0C4.87193 0 2.17378 1.79636 0.857422 4.41455L3.5192 6.48001C4.15189 4.58908 5.91919 3.18545 7.99918 3.18545Z" fill="white"/>
</g>
<defs>
<clipPath id="clip0_373_4594">
<rect width="16" height="16" fill="white"/>
</clipPath>
</defs>
</svg>
