<svg width="16" height="16" viewBox="0 0 16 16" fill="none" xmlns="http://www.w3.org/2000/svg">
<path d="M10.3953 11.713C7.25174 11.713 4.69422 9.06799 4.69336 5.81799C4.69422 4.99415 5.34307 4.32422 6.13821 4.32422C6.21996 4.32422 6.30084 4.33134 6.37829 4.34557C6.54868 4.37493 6.71047 4.43454 6.85934 4.5244C6.88085 4.53774 6.89548 4.5591 6.89892 4.58401L7.23109 6.7486C7.23539 6.77351 7.22765 6.79931 7.2113 6.81799C7.028 7.02796 6.79393 7.1792 6.53319 7.25482L6.40756 7.2913L6.45488 7.41675C6.88343 8.54486 7.75602 9.44611 8.84804 9.89095L8.96938 9.94077L9.00466 9.81088C9.0778 9.5413 9.2241 9.29931 9.42718 9.10981C9.44181 9.09557 9.4616 9.08845 9.4814 9.08845C9.4857 9.08845 9.49001 9.08845 9.49517 9.08934L11.5889 9.43276C11.6138 9.43721 11.6345 9.45144 11.6474 9.47369C11.7334 9.6276 11.7911 9.79575 11.8203 9.97191C11.8341 10.0502 11.8401 10.1329 11.8401 10.2192C11.8401 11.0422 11.1921 11.7121 10.3953 11.713Z" fill="#FDFDFD"/>
<path d="M15.9699 7.28648C15.8004 5.30605 14.9226 3.46886 13.4984 2.11388C12.0656 0.75089 10.2069 0 8.26289 0C3.99634 0 0.524937 3.58897 0.524937 8C0.524937 9.48042 0.919916 10.9226 1.66772 12.1788L0 15.9955L5.33965 15.4075C6.26817 15.8007 7.2509 16 8.26203 16C8.52794 16 8.80073 15.9858 9.07439 15.9564C9.31534 15.9297 9.55887 15.8906 9.7981 15.8407C13.3711 15.0943 15.9793 11.8158 16 8.04271V8C16 7.75978 15.9897 7.51957 15.969 7.28736L15.9699 7.28648ZM5.54532 13.7322L2.59109 14.0578L3.47314 12.0374L3.29673 11.7927C3.28382 11.7749 3.27091 11.7571 3.25629 11.7367C2.49041 10.6432 2.08594 9.35142 2.08594 8.00089C2.08594 4.47954 4.85688 1.61477 8.26289 1.61477C11.4538 1.61477 14.1584 4.18861 14.4192 7.4742C14.433 7.65036 14.4407 7.8274 14.4407 8.00178C14.4407 8.0516 14.4398 8.10053 14.439 8.15302C14.3736 11.0988 12.3832 13.6005 9.59845 14.2375C9.3859 14.2865 9.16818 14.3238 8.95132 14.3479C8.72586 14.3746 8.49438 14.3879 8.26462 14.3879C7.44624 14.3879 6.65111 14.2242 5.89986 13.9004C5.81639 13.8657 5.73463 13.8283 5.65804 13.79L5.54618 13.734L5.54532 13.7322Z" fill="#FDFDFD"/>
</svg>
