<svg width="32" height="32" viewBox="0 0 32 32" fill="none" xmlns="http://www.w3.org/2000/svg">
<rect width="32" height="32" rx="16" fill="#FB0509"/>
<path d="M13.1099 9.06485C13.4096 9.06485 13.6857 9.22737 13.8312 9.48938L14.8402 11.307C14.9723 11.545 14.9786 11.8329 14.8568 12.0763L13.8847 14.0205C13.8847 14.0205 14.1664 15.4689 15.3454 16.6478C16.5244 17.8268 17.9679 18.1036 17.9679 18.1036L19.9117 17.1317C20.1554 17.0099 20.4434 17.0162 20.6815 17.1486L22.5043 18.162C22.7661 18.3075 22.9284 18.5835 22.9284 18.8829V20.9756C22.9284 22.0412 21.9385 22.8109 20.9288 22.4702C18.855 21.7705 15.6359 20.4381 13.5955 18.3977C11.5551 16.3574 10.2228 13.1382 9.52303 11.0644C9.18233 10.0547 9.95202 9.06485 11.0177 9.06485H13.1099Z" fill="white" stroke="white" stroke-width="1.64984" stroke-linejoin="round"/>
</svg>
